# xmcd
#
# Track frame offsets:
# 150
# 14862
# 32002
# 47502
# 58354
# 72620
# 85507
# 101260
# 115093
# 128568
# 141479
# 159617
# 174403
# 187490
#
# Disc length: 2773 seconds
#
#
# Revision: 0
# Processed by: cddbd v1.5.2PL0 Copyright (c) Steve Scherf et al.
# Submitted via: FreeRIP 2.943 
#
DISCID=ca0ad30e
DTITLE=Various Artist - Schlager der Liebe [CD 2)
DYEAR=2006
DGENRE=Pop
TTITLE0=Roy Black - Zeig mir dass du mich lieb hast
TTITLE1=Nielson Brothers - Aber dich gibts nur einmal für mich
TTITLE2=Die Paldauer - Die glocken der liebe
TTITLE3=Costa Cordalis - Still wie der see
TTITLE4=Ulli Bastian - Ich liebe dich total
TTITLE5=Marianne cathomen - Mehr als Liebe
TTITLE6=Marcell Dominik - Manchmal denk ich noch an dich
TTITLE7=Omar - Schick mir einen engel her (un  Angelo per me)
TTITLE8=Benjamin Grund - Ich bin immer noch verliebt in dich
TTITLE9=Lolita - Das schönste im Leben
TTITLE10=Xanadu - Liebe lebt
TTITLE11=Frei - Hab ich dich heut schon geküsst
TTITLE12=Dennie Christian - Jede große liebe hat ein Happy end
TTITLE13=Dunja Rajter - Nur nicht aus liebe weinen
EXTD=
EXTT0=
EXTT1=
EXTT2=
EXTT3=
EXTT4=
EXTT5=
EXTT6=
EXTT7=
EXTT8=
EXTT9=
EXTT10=
EXTT11=
EXTT12=
EXTT13=
PLAYORDER=
